<svg width="32" height="25" viewBox="0 0 32 25" fill="none" xmlns="http://www.w3.org/2000/svg">
<path d="M19.9594 0.00927734C19.6517 0.558955 19.3776 1.12663 19.1384 1.70921C16.7881 1.3384 14.394 1.3384 12.0437 1.70921C11.8045 1.12663 11.5303 0.558955 11.2226 0.00927734C9.0087 0.386665 6.85645 1.06252 4.825 2.01829C1.19235 7.24836 -0.455093 13.5979 0.177798 19.9294C2.54514 21.7049 5.20213 23.059 8.03157 23.932C8.67585 23.083 9.25084 22.1838 9.75103 21.243C8.8279 20.9035 7.94063 20.4738 7.10213 19.9603C7.3321 19.8077 7.54965 19.6372 7.75274 19.4504C10.1979 20.6253 12.877 21.2355 15.591 21.2355C18.305 21.2355 20.9842 20.6253 23.4293 19.4504C23.6462 19.6358 23.863 19.8058 24.0799 19.9603C23.2368 20.4698 22.3504 20.9042 21.431 21.2585C21.9104 22.2205 22.4701 23.1407 23.104 24.0093C25.9299 23.1393 28.5823 21.7848 30.9423 20.0067C31.5904 13.674 29.9416 7.31928 26.2951 2.09556C24.2864 1.12001 22.1555 0.418298 19.9594 0.00927734ZM10.4481 16.3132C9.67294 16.2577 8.94946 15.9047 8.42956 15.3284C7.90965 14.7521 7.63376 13.9973 7.65979 13.2224C7.62983 12.4465 7.90437 11.6895 8.42505 11.1123C8.94573 10.5352 9.6715 10.1833 10.4481 10.1316C11.2247 10.1833 11.9505 10.5352 12.4712 11.1123C12.9919 11.6895 13.2664 12.4465 13.2364 13.2224C13.2664 13.9983 12.9919 14.7553 12.4712 15.3325C11.9505 15.9096 11.2247 16.2615 10.4481 16.3132ZM20.7339 16.3132C19.9587 16.2577 19.2353 15.9047 18.7154 15.3284C18.1955 14.7521 17.9196 13.9973 17.9456 13.2224C17.9156 12.4465 18.1902 11.6895 18.7109 11.1123C19.2315 10.5352 19.9573 10.1833 20.7339 10.1316C21.512 10.1795 22.2401 10.5302 22.7616 11.1082C23.283 11.6863 23.5562 12.4455 23.5222 13.2224C23.5562 13.9994 23.283 14.7585 22.7616 15.3366C22.2401 15.9146 21.512 16.2653 20.7339 16.3132Z" fill="white"/>
</svg>
