<svg width="32" height="35" viewBox="0 0 32 35" fill="none" xmlns="http://www.w3.org/2000/svg">
<path d="M16 0.690918C7.16342 0.690918 0 8.37124 0 17.8455C0 27.3197 7.16342 35 16 35C24.8366 35 32 27.3197 32 17.8455C32 8.37124 24.8366 0.690918 16 0.690918ZM23.4163 12.3574C23.1755 15.07 22.1336 21.6525 21.6034 24.6907C21.3791 25.9762 20.9374 26.4072 20.5099 26.4494C19.5809 26.5411 18.8752 25.7911 17.9753 25.1586C16.5671 24.1688 15.7715 23.5527 14.4046 22.587C12.8249 21.4709 13.849 20.8577 14.7492 19.8547C14.9848 19.5923 19.0787 15.5999 19.1579 15.2378C19.1678 15.1925 19.1773 15.0233 19.0835 14.9345C18.9897 14.8457 18.8519 14.8758 18.7522 14.8999C18.611 14.9343 16.3614 16.5286 12.0033 19.6826C11.3648 20.1527 10.7864 20.3817 10.2682 20.3697C9.6969 20.3565 8.598 20.0235 7.78103 19.7387C6.77903 19.3895 5.98264 19.2049 6.052 18.6118C6.08813 18.3028 6.4849 17.987 7.24232 17.6642C11.9067 15.4854 15.0169 14.0489 16.5732 13.3548C21.0165 11.3732 21.9398 11.029 22.5416 11.0175C22.674 11.0152 22.9699 11.0503 23.1616 11.2171C23.2891 11.3359 23.3704 11.5017 23.3894 11.6817C23.4218 11.9051 23.4309 12.1318 23.4163 12.3574Z" fill="white"/>
</svg>
